<svg width="115" height="63" viewBox="0 0 115 63" fill="none" xmlns="http://www.w3.org/2000/svg">
<g clip-path="url(#clip0_67_112)">
<path d="M115 35C95.8333 28.3333 76.6667 28.3333 57.5 35C38.3333 41.6667 19.1667 41.6667 2.38419e-06 35" stroke="#0D2C32" stroke-width="5"/>
<path d="M115 15C95.8333 8.33333 76.6667 8.33333 57.5 15C38.3333 21.6667 19.1667 21.6667 2.38419e-06 15" stroke="#0D2C32" stroke-width="5"/>
<path d="M115 55C95.8333 48.3333 76.6667 48.3333 57.5 55C38.3333 61.6667 19.1667 61.6667 2.38419e-06 55" stroke="#0D2C32" stroke-width="5"/>
<path d="M0 35C-19.1667 28.3333 -38.3333 28.3333 -57.5 35C-76.6667 41.6667 -95.8333 41.6667 -115 35" stroke="#0D2C32" stroke-width="5"/>
<path d="M0 15C-19.1667 8.33333 -38.3333 8.33333 -57.5 15C-76.6667 21.6667 -95.8333 21.6667 -115 15" stroke="#0D2C32" stroke-width="5"/>
<path d="M0 55C-19.1667 48.3333 -38.3333 48.3333 -57.5 55C-76.6667 61.6667 -95.8333 61.6667 -115 55" stroke="#0D2C32" stroke-width="5"/>
<path d="M230 35C210.833 28.3333 191.667 28.3333 172.5 35C153.333 41.6667 134.167 41.6667 115 35" stroke="#0D2C32" stroke-width="5"/>
<path d="M230 15C210.833 8.33333 191.667 8.33333 172.5 15C153.333 21.6667 134.167 21.6667 115 15" stroke="#0D2C32" stroke-width="5"/>
<path d="M230 55C210.833 48.3333 191.667 48.3333 172.5 55C153.333 61.6667 134.167 61.6667 115 55" stroke="#0D2C32" stroke-width="5"/>
</g>
<g clip-path="url(#clip1_67_112)">
<path d="M115 31C95.8333 24.3333 76.6667 24.3333 57.5 31C38.3333 37.6667 19.1667 37.6667 2.38419e-06 31" stroke="#185D6C" stroke-width="5"/>
<path d="M115 11C95.8333 4.33333 76.6667 4.33333 57.5 11C38.3333 17.6667 19.1667 17.6667 2.38419e-06 11" stroke="#185D6C" stroke-width="5"/>
<path d="M115 51C95.8333 44.3333 76.6667 44.3333 57.5 51C38.3333 57.6667 19.1667 57.6667 2.38419e-06 51" stroke="#185D6C" stroke-width="5"/>
<path d="M0 31C-19.1667 24.3333 -38.3333 24.3333 -57.5 31C-76.6667 37.6667 -95.8333 37.6667 -115 31" stroke="#185D6C" stroke-width="5"/>
<path d="M0 11C-19.1667 4.33333 -38.3333 4.33333 -57.5 11C-76.6667 17.6667 -95.8333 17.6667 -115 11" stroke="#185D6C" stroke-width="5"/>
<path d="M0 51C-19.1667 44.3333 -38.3333 44.3333 -57.5 51C-76.6667 57.6667 -95.8333 57.6667 -115 51" stroke="#185D6C" stroke-width="5"/>
<path d="M230 31C210.833 24.3333 191.667 24.3333 172.5 31C153.333 37.6667 134.167 37.6667 115 31" stroke="#185D6C" stroke-width="5"/>
<path d="M230 11C210.833 4.33333 191.667 4.33333 172.5 11C153.333 17.6667 134.167 17.6667 115 11" stroke="#185D6C" stroke-width="5"/>
<path d="M230 51C210.833 44.3333 191.667 44.3333 172.5 51C153.333 57.6667 134.167 57.6667 115 51" stroke="#185D6C" stroke-width="5"/>
</g>
<defs>
<clipPath id="clip0_67_112">
<rect width="115" height="59" fill="white" transform="matrix(-1 0 0 1 115 4)"/>
</clipPath>
<clipPath id="clip1_67_112">
<rect width="115" height="59" fill="white" transform="matrix(-1 0 0 1 115 0)"/>
</clipPath>
</defs>
</svg>
