<svg width="170" height="100" viewBox="0 0 170 100" fill="none" xmlns="http://www.w3.org/2000/svg">
<g clip-path="url(#clip0_91_2)">
<path d="M169.525 53.125C197.779 42.7083 226.034 42.7083 254.288 53.125C282.542 63.5417 310.796 63.5417 339.05 53.125" stroke="#3B1415" stroke-width="7"/>
<path d="M339.05 18.75C310.796 8.33333 282.542 8.33333 254.288 18.75C226.033 29.1667 197.779 29.1667 169.525 18.75" stroke="#3B1415" stroke-width="7"/>
<path d="M339.05 87.5C310.796 77.0833 282.542 77.0833 254.288 87.5C226.033 97.9167 197.779 97.9167 169.525 87.5" stroke="#3B1415" stroke-width="7"/>
<path d="M3.05176e-05 53.125C28.2542 42.7083 56.5084 42.7083 84.7626 53.125C113.017 63.5417 141.271 63.5417 169.525 53.125" stroke="#3B1415" stroke-width="7"/>
<path d="M169.525 18.75C141.271 8.33333 113.017 8.33333 84.7626 18.75C56.5084 29.1667 28.2542 29.1667 0 18.75" stroke="#3B1415" stroke-width="7"/>
<path d="M169.525 87.5C141.271 77.0833 113.017 77.0833 84.7626 87.5C56.5084 97.9167 28.2542 97.9167 0 87.5" stroke="#3B1415" stroke-width="7"/>
<path d="M-169.525 53.125C-141.271 42.7083 -113.017 42.7083 -84.7626 53.125C-56.5084 63.5417 -28.2542 63.5417 -4.36327e-06 53.125" stroke="#3B1415" stroke-width="7"/>
<path d="M3.05176e-05 18.75C-28.2542 8.33333 -56.5084 8.33333 -84.7625 18.75C-113.017 29.1667 -141.271 29.1667 -169.525 18.75" stroke="#3B1415" stroke-width="7"/>
<path d="M3.05176e-05 87.5C-28.2542 77.0833 -56.5084 77.0833 -84.7625 87.5C-113.017 97.9167 -141.271 97.9167 -169.525 87.5" stroke="#3B1415" stroke-width="7"/>
</g>
<g clip-path="url(#clip1_91_2)">
<path d="M170 46.875C198.333 36.4583 226.667 36.4583 255 46.875C283.333 57.2917 311.667 57.2917 340 46.875" stroke="#822425" stroke-width="7"/>
<path d="M340 12.5C311.667 2.08333 283.333 2.08333 255 12.5C226.667 22.9167 198.333 22.9167 170 12.5" stroke="#822425" stroke-width="7"/>
<path d="M340 81.25C311.667 70.8333 283.333 70.8333 255 81.25C226.667 91.6667 198.333 91.6667 170 81.25" stroke="#822425" stroke-width="7"/>
<path d="M0 46.875C28.3333 36.4583 56.6667 36.4583 85 46.875C113.333 57.2917 141.667 57.2917 170 46.875" stroke="#822425" stroke-width="7"/>
<path d="M170 12.5C141.667 2.08333 113.333 2.08333 85 12.5C56.6667 22.9167 28.3333 22.9167 -4.76837e-06 12.5" stroke="#822425" stroke-width="7"/>
<path d="M170 81.25C141.667 70.8333 113.333 70.8333 85 81.25C56.6667 91.6667 28.3333 91.6667 -4.76837e-06 81.25" stroke="#822425" stroke-width="7"/>
<path d="M-170 46.875C-141.667 36.4583 -113.333 36.4583 -85 46.875C-56.6667 57.2917 -28.3333 57.2917 -3.78805e-08 46.875" stroke="#822425" stroke-width="7"/>
<path d="M0 12.5C-28.3333 2.08333 -56.6667 2.08333 -85 12.5C-113.333 22.9167 -141.667 22.9167 -170 12.5" stroke="#822425" stroke-width="7"/>
<path d="M0 81.25C-28.3333 70.8333 -56.6667 70.8333 -85 81.25C-113.333 91.6667 -141.667 91.6667 -170 81.25" stroke="#822425" stroke-width="7"/>
</g>
<defs>
<clipPath id="clip0_91_2">
<rect width="170" height="94.7368" fill="white" transform="matrix(-1 0 0 1 170 5.26331)"/>
</clipPath>
<clipPath id="clip1_91_2">
<rect width="170" height="94.7368" fill="white" transform="matrix(-1 0 0 1 170 0)"/>
</clipPath>
</defs>
</svg>
